<?xml version="1.0" encoding="utf-8"?>
<!-- Generator: Adobe Illustrator 24.2.1, SVG Export Plug-In . SVG Version: 6.00 Build 0)  -->
<svg version="1.1" id="Layer_1" xmlns="http://www.w3.org/2000/svg" xmlns:xlink="http://www.w3.org/1999/xlink" x="0px" y="0px"
	 viewBox="0 0 1633.4 327.6" style="enable-background:new 0 0 1633.4 327.6;" xml:space="preserve">
<style type="text/css">
	.st0{fill:#3FA7F5;}
	.st1{display:none;}
	.st2{display:inline;fill:#3FA9F5;}
</style>
<g>
	<polygon class="st0" points="0.2,285 72.2,285 179.1,142.6 72,0 0,0 107.3,142.6 	"/>
</g>
<g class="st1">
	<path class="st2" d="M65.4,267.7l-35.7-31.2l86.7-100.1L29.7,36.2L65.4,5l113.5,131.3L65.4,267.7z"/>
</g>
<g>
	<path d="M270.8,105.2c0,0,15.8-26.7,60.7-26.7v47.2c-29.7,0-50.2,7.9-59.4,28v110.6H218V82.8h42.9L270.8,105.2z"/>
	<path d="M463.5,264.3l-6.6-20.5c0,0-14.5,24.8-48.5,24.8c-39.3,0-60.1-22.1-60.1-62.4V82.8h54.1v110.6c0,20.5,7.3,30.4,23.1,30.4
		c20.8,0,28.7-15.8,28.7-15.8V82.8h54.1v181.5H463.5z"/>
	<path d="M703.6,143.5v120.8h-54.5V146.5c0-14.8-6.6-23.4-19.8-23.4c-20.1,0-32.7,15.5-32.7,15.5v125.7h-54.5V82.8h43.9l7.6,19.8
		c2.6-3,21.8-24.1,53.8-24.1C692.7,78.5,703.6,101.9,703.6,143.5z"/>
	<path d="M735.6,264.3V23.4h54.1v240.9H735.6z"/>
	<path d="M979.4,235.3c0,62.4-30.7,92.7-89.8,92.7c-26.7,0-45.5-6.3-50.8-8.6v-42.2c5.3,3,22.4,10.2,49.5,10.2c23.4,0,37-13.5,37-33
		l3-17.2c0,0-18.5,23.4-49.2,23.4c-41.9,0-57.8-25.4-57.8-65.3V82.8h54.1v110.9c0,15.2,7.3,24.4,20.8,24.4c18.1,0,29-16.2,29-16.2
		V82.8h54.1V235.3z"/>
	<path class="st0" d="M1067.9,240.5c0,15.5-12.5,28-28.4,28c-15.5,0-27.7-12.5-27.7-28c0-15.5,12.2-28.1,27.7-28.1
		C1055.3,212.5,1067.9,225,1067.9,240.5z"/>
	<path class="st0" d="M1285.1,264.3h-51.2l-79.2-136l2,15.5v120.5h-54.1V41.2h51.8l78.2,135.3l-1.7-14.8V41.2h54.1V264.3z"/>
	<path class="st0" d="M1321.8,264.3V41.2h137.6v46.9h-83.5V131h73.6v42.6h-73.6v43.9h84.5v46.9H1321.8z"/>
	<path class="st0" d="M1581.4,88.1v176.2h-54.1V88.1h-50.2V41.2h154.4v46.9H1581.4z"/>
</g>
</svg>
